<?xml version="1.0" standalone="no"?>
<!DOCTYPE svg PUBLIC "-//W3C//DTD SVG 20010904//EN"
 "http://www.w3.org/TR/2001/REC-SVG-20010904/DTD/svg10.dtd">
<svg version="1.0" xmlns="http://www.w3.org/2000/svg"
 width="225.000000pt" height="225.000000pt" viewBox="0 0 225.000000 225.000000"
 preserveAspectRatio="xMidYMid meet">
<metadata>
Created by potrace 1.14, written by Peter Selinger 2001-2017
</metadata>
<g transform="translate(0.000000,225.000000) scale(0.100000,-0.100000)"
fill="#000000" stroke="none">
<path d="M805 1969 c-226 -32 -355 -89 -471 -205 -114 -115 -234 -328 -286
-509 -20 -71 -23 -102 -23 -275 0 -184 1 -197 22 -233 13 -21 23 -49 23 -63 0
-36 36 -101 60 -109 11 -4 20 -15 20 -26 0 -75 126 -159 309 -205 252 -63 403
-84 616 -84 219 0 586 101 702 192 7 6 23 3 44 -7 47 -25 118 -16 166 20 20
16 46 30 57 30 24 2 54 38 62 74 11 49 13 53 33 46 33 -10 56 25 74 111 14 65
16 122 13 324 -5 330 -13 358 -157 535 -102 126 -258 255 -329 272 -14 3 -32
11 -40 18 -8 7 -24 15 -35 17 -11 3 -71 20 -132 37 -62 17 -152 38 -199 46
-119 21 -364 18 -529 -6z m288 -498 c3 -16 31 -82 62 -146 30 -65 54 -120 52
-122 -2 -2 -31 -10 -63 -19 -63 -16 -121 -45 -116 -58 1 -5 53 -8 116 -7 l115
2 25 -38 26 -38 -105 -7 c-143 -10 -156 -17 -174 -95 -8 -35 -18 -63 -23 -63
-22 0 1 274 43 512 21 117 31 136 42 79z m-409 -205 c9 -38 15 -70 14 -72 -2
-1 -33 0 -69 3 l-67 6 25 51 c14 28 35 66 46 85 24 40 24 40 51 -73z m860
-173 l26 -53 -30 0 c-30 0 -30 0 -30 57 0 31 2 54 4 52 2 -2 15 -28 30 -56z
m-877 31 c58 -6 63 -9 72 -37 6 -17 10 -32 8 -33 -5 -5 -228 16 -238 22 -5 3
-2 19 7 36 14 27 19 30 52 25 21 -3 65 -9 99 -13z m-82 -287 c0 -171 2 -195
17 -211 25 -25 60 -16 78 19 11 23 15 69 15 186 0 178 -1 176 76 102 21 -20
39 -30 43 -25 8 13 -39 70 -79 93 -30 19 -30 19 -5 19 32 0 39 -6 74 -59 28
-44 28 -44 24 -180 -3 -108 -8 -145 -24 -176 -18 -37 -23 -41 -74 -48 -86 -13
-341 -4 -368 14 -29 18 -62 107 -62 167 l0 47 20 -33 c24 -40 36 -35 51 21 7
23 32 90 56 150 l45 107 56 0 57 0 0 -193z m79 163 c4 -5 11 -38 13 -74 6 -64
5 -66 -21 -75 -46 -18 -56 -6 -56 69 0 86 6 103 34 94 11 -3 25 -10 30 -14z
m511 -10 c-27 -11 -63 -27 -78 -36 -33 -19 -43 -14 -28 15 11 20 24 25 81 34
64 10 73 5 25 -13z m254 -102 c46 -51 108 -94 118 -84 5 5 -9 77 -33 164 -6
20 -3 22 29 22 27 0 36 -5 40 -22 5 -17 9 -19 20 -9 12 9 18 6 32 -15 14 -22
16 -40 10 -112 -7 -94 -19 -171 -35 -232 -12 -46 -33 -55 -164 -75 -149 -23
-307 7 -366 70 -19 21 -24 39 -28 118 -2 52 -1 116 2 142 8 47 8 47 81 81 41
19 79 34 85 34 7 0 8 -27 3 -92 -14 -165 -10 -285 9 -304 14 -14 22 -15 42 -6
42 19 60 101 60 280 l1 153 25 -33 c14 -18 45 -54 69 -80z m-109 23 c0 -88
-11 -108 -56 -97 -26 7 -26 8 -20 67 10 87 20 109 51 109 25 0 25 -1 25 -79z
m-1060 5 c0 -8 3 -21 6 -30 4 -11 1 -16 -10 -16 -11 0 -16 9 -16 30 0 17 5 30
10 30 6 0 10 -6 10 -14z m1450 -61 l23 -25 -26 0 c-22 0 -27 5 -27 25 0 14 1
25 3 25 2 0 14 -11 27 -25z m-1500 -100 c0 -31 -10 -59 -34 -100 l-35 -56 -15
23 c-26 40 -31 112 -12 163 24 61 44 71 74 38 15 -18 22 -39 22 -68z m722 49
c26 -25 53 -42 58 -39 6 3 10 24 10 46 0 21 4 39 9 39 5 0 10 -53 12 -118 5
-141 13 -159 97 -201 103 -52 212 -62 364 -35 146 27 157 40 182 212 l12 87
44 -4 c28 -2 56 -12 77 -28 24 -18 33 -21 33 -11 0 8 16 19 35 25 43 14 86 -6
128 -59 42 -53 47 -110 13 -175 -14 -29 -36 -59 -48 -67 -27 -20 -97 -21 -123
-3 -38 26 -62 26 -84 1 -43 -50 -194 -110 -391 -157 -127 -30 -146 -32 -315
-31 -201 1 -273 10 -490 60 -251 59 -375 133 -375 227 0 14 13 51 30 82 24 46
30 69 30 121 0 50 3 64 15 64 12 0 15 -15 15 -78 0 -89 21 -164 57 -203 20
-22 38 -28 125 -39 83 -11 121 -11 217 -1 64 7 123 17 132 22 34 18 52 79 57
196 3 66 9 113 15 113 5 0 32 -20 59 -46z"/>
<path d="M1865 668 c-21 -31 -37 -95 -30 -118 5 -15 15 -20 44 -20 68 0 99 69
36 80 -25 5 -30 10 -27 30 1 14 7 27 12 28 15 5 12 22 -4 22 -8 0 -22 -10 -31
-22z m48 -84 c11 -11 -5 -34 -24 -34 -12 0 -19 7 -19 20 0 19 28 28 43 14z"/>
<path d="M800 478 c0 -39 38 -62 86 -53 22 4 48 1 66 -6 22 -9 38 -9 69 0 34
10 39 16 39 41 0 34 -15 40 -23 9 -5 -19 -11 -20 -59 -15 -29 3 -73 6 -98 5
-35 0 -48 5 -62 23 l-18 23 0 -27z"/>
</g>
</svg>
